<svg width="150" height="150" viewBox="0 0 150 150" fill="none" xmlns="http://www.w3.org/2000/svg">
  <defs>
    <linearGradient id="gradient150" x1="0%" y1="0%" x2="100%" y2="100%">
      <stop offset="0%" style="stop-color:#3B82F6;stop-opacity:1" />
      <stop offset="100%" style="stop-color:#8B5CF6;stop-opacity:1" />
    </linearGradient>
  </defs>
  
  <!-- Background -->
  <rect width="150" height="150" fill="url(#gradient150)"/>
  
  <!-- Git Branch Icon -->
  <g transform="translate(50, 50)" fill="white">
    <path d="M25 12.5C21.134 12.5 18 15.634 18 19.5s3.134 7 7 7c2.569 0 4.82-1.407 6.027-3.504L33 23.812V31.188A7.007 7.007 0 0 0 25 37.5c0 3.866 3.134 7 7 7s7-3.134 7-7c0-2.569-1.407-4.82-3.504-6.027L37 30.688V23.812l.973.934C39.18 26.843 41.431 28.25 44 28.25c3.866 0 7-3.134 7-7s-3.134-7-7-7-7 3.134-7 7c0 .2.025.392.043.585L37 21.321V19.5c0-3.866-3.134-7-7-7z"/>
    <circle cx="25" cy="19.5" r="4" fill="white"/>
    <circle cx="44" cy="21.25" r="4" fill="white"/>
    <circle cx="25" cy="37.5" r="4" fill="white"/>
  </g>
</svg>
